999
dxfrw 0.5.10
0
SECTION
2
HEADER
9
$ACADVER
1
AC1021
9
$HANDSEED
5
20000
9
$DWGCODEPAGE
3
ANSI_1252
9
$INSBASE
10
0
20
0
30
0
9
$EXTMIN
10
105.282
20
18.75
30
0
9
$EXTMAX
10
287.457
20
117.417
30
0
9
$LIMMIN
10
0
20
0
9
$LIMMAX
10
420
20
297
9
$ORTHOMODE
70
0
9
$LTSCALE
40
1
9
$TEXTSTYLE
7
STANDARD
9
$CLAYER
8
0
9
$DIMASZ
40
2.5
9
$DIMLFAC
40
1
9
$DIMSCALE
40
1
9
$DIMEXO
40
0.625
9
$DIMEXE
40
1.25
9
$DIMTXT
40
2.5
9
$DIMTSZ
40
0
9
$DIMAUNIT
70
0
9
$DIMADEC
70
0
9
$DIMLUNIT
70
2
9
$DIMSTYLE
2
Standard
9
$DIMGAP
40
0.625
9
$DIMTIH
70
0
9
$LUNITS
70
2
9
$LUPREC
70
4
9
$AUNITS
70
0
9
$AUPREC
70
2
9
$SPLINESEGS
70
8
9
$SNAPSTYLE
70
0
9
$PINSBASE
10
0
20
0
30
0
9
$PLIMMIN
10
0
20
0
9
$PLIMMAX
10
210
20
297
9
$INSUNITS
70
4
9
$PSVPSCALE
40
1
0
ENDSEC
0
SECTION
2
CLASSES
0
ENDSEC
0
SECTION
2
TABLES
0
TABLE
2
VPORT
5
8
330
0
100
AcDbSymbolTable
70
1
0
VPORT
5
31
330
2
100
AcDbSymbolTableRecord
100
AcDbViewportTableRecord
2
*ACTIVE
70
0
10
0
20
0
11
1
21
1
12
129.92
22
56.1600000001
13
0
23
0
14
10
24
10
15
10
25
10
16
0
26
0
36
1
17
0
27
0
37
0
40
107.04
41
1.96562032885
42
50
43
0
44
0
50
0
51
0
71
0
72
100
73
1
74
3
75
0
76
1
77
0
78
0
281
0
65
1
110
0
120
0
130
0
111
1
121
0
131
0
112
0
122
1
132
0
79
0
146
0
348
10020
60
7
61
5
292
1
282
1
141
0
142
0
63
250
421
3358443
0
ENDTAB
0
TABLE
2
LTYPE
5
5
330
0
100
AcDbSymbolTable
70
4
0
LTYPE
5
14
330
5
100
AcDbSymbolTableRecord
100
AcDbLinetypeTableRecord
2
ByBlock
70
0
3

72
65
73
0
40
0
0
LTYPE
5
15
330
5
100
AcDbSymbolTableRecord
100
AcDbLinetypeTableRecord
2
ByLayer
70
0
3

72
65
73
0
40
0
0
LTYPE
5
16
330
5
100
AcDbSymbolTableRecord
100
AcDbLinetypeTableRecord
2
Continuous
70
0
3
Solid line
72
65
73
0
40
0
0
LTYPE
5
32
330
5
100
AcDbSymbolTableRecord
100
AcDbLinetypeTableRecord
2
DOT
70
0
3
Dot . . . . . . . . . . . . . . . . . . . . . .
72
65
73
2
40
6.35
49
0
74
0
49
-6.35
74
0
0
LTYPE
5
33
330
5
100
AcDbSymbolTableRecord
100
AcDbLinetypeTableRecord
2
DOT2
70
0
3
Dot (.5x) .....................................
72
65
73
2
40
3.175
49
0
74
0
49
-3.175
74
0
0
LTYPE
5
34
330
5
100
AcDbSymbolTableRecord
100
AcDbLinetypeTableRecord
2
DOTX2
70
0
3
Dot (2x) .  .  .  .  .  .  .  .  .  .  .  .  .
72
65
73
2
40
12.7
49
0
74
0
49
-12.7
74
0
0
LTYPE
5
35
330
5
100
AcDbSymbolTableRecord
100
AcDbLinetypeTableRecord
2
DASHED
70
0
3
Dot . . . . . . . . . . . . . . . . . . . . . .
72
65
73
2
40
19.05
49
12.7
74
0
49
-6.35
74
0
0
LTYPE
5
36
330
5
100
AcDbSymbolTableRecord
100
AcDbLinetypeTableRecord
2
DASHED2
70
0
3
Dashed (.5x) _ _ _ _ _ _ _ _ _ _ _ _ _ _ _ _ _
72
65
73
2
40
9.525
49
6.35
74
0
49
-3.175
74
0
0
LTYPE
5
37
330
5
100
AcDbSymbolTableRecord
100
AcDbLinetypeTableRecord
2
DASHEDX2
70
0
3
Dashed (2x) ____  ____  ____  ____  ____  ___
72
65
73
2
40
38.1
49
25.4
74
0
49
-12.7
74
0
0
LTYPE
5
38
330
5
100
AcDbSymbolTableRecord
100
AcDbLinetypeTableRecord
2
DASHDOT
70
0
3
Dash dot __ . __ . __ . __ . __ . __ . __ . __
72
65
73
4
40
25.4
49
12.7
74
0
49
-6.35
74
0
49
0
74
0
49
-6.35
74
0
0
LTYPE
5
39
330
5
100
AcDbSymbolTableRecord
100
AcDbLinetypeTableRecord
2
DASHDOT2
70
0
3
Dash dot (.5x) _._._._._._._._._._._._._._._.
72
65
73
4
40
12.7
49
6.35
74
0
49
-3.175
74
0
49
0
74
0
49
-3.175
74
0
0
LTYPE
5
3A
330
5
100
AcDbSymbolTableRecord
100
AcDbLinetypeTableRecord
2
DASHDOTX2
70
0
3
Dash dot (2x) ____  .  ____  .  ____  .  ___
72
65
73
4
40
50.8
49
25.4
74
0
49
-12.7
74
0
49
0
74
0
49
-12.7
74
0
0
LTYPE
5
3B
330
5
100
AcDbSymbolTableRecord
100
AcDbLinetypeTableRecord
2
DIVIDE
70
0
3
Divide ____ . . ____ . . ____ . . ____ . . ____
72
65
73
6
40
31.75
49
12.7
74
0
49
-6.35
74
0
49
0
74
0
49
-6.35
74
0
49
0
74
0
49
-6.35
74
0
0
LTYPE
5
3C
330
5
100
AcDbSymbolTableRecord
100
AcDbLinetypeTableRecord
2
DIVIDE2
70
0
3
Divide (.5x) __..__..__..__..__..__..__..__.._
72
65
73
6
40
15.875
49
6.35
74
0
49
-3.175
74
0
49
0
74
0
49
-3.175
74
0
49
0
74
0
49
-3.175
74
0
0
LTYPE
5
3D
330
5
100
AcDbSymbolTableRecord
100
AcDbLinetypeTableRecord
2
DIVIDEX2
70
0
3
Divide (2x) ________  .  .  ________  .  .  _
72
65
73
6
40
63.5
49
25.4
74
0
49
-12.7
74
0
49
0
74
0
49
-12.7
74
0
49
0
74
0
49
-12.7
74
0
0
LTYPE
5
3E
330
5
100
AcDbSymbolTableRecord
100
AcDbLinetypeTableRecord
2
BORDER
70
0
3
Border __ __ . __ __ . __ __ . __ __ . __ __ .
72
65
73
6
40
44.45
49
12.7
74
0
49
-6.35
74
0
49
12.7
74
0
49
-6.35
74
0
49
0
74
0
49
-6.35
74
0
0
LTYPE
5
3F
330
5
100
AcDbSymbolTableRecord
100
AcDbLinetypeTableRecord
2
BORDER2
70
0
3
Border (.5x) __.__.__.__.__.__.__.__.__.__.__.
72
65
73
6
40
22.225
49
6.35
74
0
49
-3.175
74
0
49
6.35
74
0
49
-3.175
74
0
49
0
74
0
49
-3.175
74
0
0
LTYPE
5
40
330
5
100
AcDbSymbolTableRecord
100
AcDbLinetypeTableRecord
2
BORDERX2
70
0
3
Border (2x) ____  ____  .  ____  ____  .  ___
72
65
73
6
40
88.9
49
25.4
74
0
49
-12.7
74
0
49
25.4
74
0
49
-12.7
74
0
49
0
74
0
49
-12.7
74
0
0
LTYPE
5
41
330
5
100
AcDbSymbolTableRecord
100
AcDbLinetypeTableRecord
2
CENTER
70
0
3
Center ____ _ ____ _ ____ _ ____ _ ____ _ ____
72
65
73
4
40
50.8
49
31.75
74
0
49
-6.35
74
0
49
6.35
74
0
49
-6.35
74
0
0
LTYPE
5
42
330
5
100
AcDbSymbolTableRecord
100
AcDbLinetypeTableRecord
2
CENTER2
70
0
3
Center (.5x) ___ _ ___ _ ___ _ ___ _ ___ _ ___
72
65
73
4
40
28.575
49
19.05
74
0
49
-3.175
74
0
49
3.175
74
0
49
-3.175
74
0
0
LTYPE
5
43
330
5
100
AcDbSymbolTableRecord
100
AcDbLinetypeTableRecord
2
CENTERX2
70
0
3
Center (2x) ________  __  ________  __  _____
72
65
73
4
40
101.6
49
63.5
74
0
49
-12.7
74
0
49
12.7
74
0
49
-12.7
74
0
0
ENDTAB
0
TABLE
2
LAYER
5
2
330
0
100
AcDbSymbolTable
70
1
0
LAYER
5
10
330
2
100
AcDbSymbolTableRecord
100
AcDbLayerTableRecord
2
0
70
0
62
7
6
CONTINUOUS
370
0
390
F
0
LAYER
5
44
330
2
100
AcDbSymbolTableRecord
100
AcDbLayerTableRecord
2
BLACK
70
0
62
7
6
CONTINUOUS
370
-3
390
F
0
LAYER
5
45
330
2
100
AcDbSymbolTableRecord
100
AcDbLayerTableRecord
2
GRAY1
70
0
62
251
6
CONTINUOUS
370
-3
390
F
0
LAYER
5
46
330
2
100
AcDbSymbolTableRecord
100
AcDbLayerTableRecord
2
GRAY2
70
0
62
8
6
CONTINUOUS
370
-3
390
F
0
LAYER
5
47
330
2
100
AcDbSymbolTableRecord
100
AcDbLayerTableRecord
2
GRAY3
70
0
62
9
6
CONTINUOUS
370
-3
390
F
0
LAYER
5
48
330
2
100
AcDbSymbolTableRecord
100
AcDbLayerTableRecord
2
WHITE
70
0
62
7
6
CONTINUOUS
370
-3
390
F
0
LAYER
5
49
330
2
100
AcDbSymbolTableRecord
100
AcDbLayerTableRecord
2
LYELLOW
70
0
62
51
6
CONTINUOUS
370
-3
390
F
0
LAYER
5
4A
330
2
100
AcDbSymbolTableRecord
100
AcDbLayerTableRecord
2
BLUE1
70
0
62
178
6
CONTINUOUS
370
-3
390
F
0
LAYER
5
4B
330
2
100
AcDbSymbolTableRecord
100
AcDbLayerTableRecord
2
GREEN1
70
0
62
98
6
CONTINUOUS
370
-3
390
F
0
LAYER
5
4C
330
2
100
AcDbSymbolTableRecord
100
AcDbLayerTableRecord
2
CYAN1
70
0
62
138
6
CONTINUOUS
370
-3
390
F
0
LAYER
5
4D
330
2
100
AcDbSymbolTableRecord
100
AcDbLayerTableRecord
2
RED1
70
0
62
18
6
CONTINUOUS
370
-3
390
F
0
LAYER
5
4E
330
2
100
AcDbSymbolTableRecord
100
AcDbLayerTableRecord
2
MAGENTA1
70
0
62
228
6
CONTINUOUS
370
-3
390
F
0
LAYER
5
4F
330
2
100
AcDbSymbolTableRecord
100
AcDbLayerTableRecord
2
BROWN1
70
0
62
58
6
CONTINUOUS
370
-3
390
F
0
LAYER
5
50
330
2
100
AcDbSymbolTableRecord
100
AcDbLayerTableRecord
2
BLUE2
70
0
62
5
6
CONTINUOUS
370
-3
390
F
0
LAYER
5
51
330
2
100
AcDbSymbolTableRecord
100
AcDbLayerTableRecord
2
GREEN2
70
0
62
3
6
CONTINUOUS
370
-3
390
F
0
LAYER
5
52
330
2
100
AcDbSymbolTableRecord
100
AcDbLayerTableRecord
2
CYAN2
70
0
62
4
6
CONTINUOUS
370
-3
390
F
0
LAYER
5
53
330
2
100
AcDbSymbolTableRecord
100
AcDbLayerTableRecord
2
RED2
70
0
62
1
6
CONTINUOUS
370
-3
390
F
0
LAYER
5
54
330
2
100
AcDbSymbolTableRecord
100
AcDbLayerTableRecord
2
MAGENTA2
70
0
62
6
6
CONTINUOUS
370
-3
390
F
0
LAYER
5
55
330
2
100
AcDbSymbolTableRecord
100
AcDbLayerTableRecord
2
BROWN2
70
0
62
54
6
CONTINUOUS
370
-3
390
F
0
LAYER
5
56
330
2
100
AcDbSymbolTableRecord
100
AcDbLayerTableRecord
2
BLUE3
70
0
62
171
6
CONTINUOUS
370
-3
390
F
0
LAYER
5
57
330
2
100
AcDbSymbolTableRecord
100
AcDbLayerTableRecord
2
GREEN3
70
0
62
91
6
CONTINUOUS
370
-3
390
F
0
LAYER
5
58
330
2
100
AcDbSymbolTableRecord
100
AcDbLayerTableRecord
2
CYAN3
70
0
62
131
6
CONTINUOUS
370
-3
390
F
0
LAYER
5
59
330
2
100
AcDbSymbolTableRecord
100
AcDbLayerTableRecord
2
RED3
70
0
62
11
6
CONTINUOUS
370
-3
390
F
0
LAYER
5
5A
330
2
100
AcDbSymbolTableRecord
100
AcDbLayerTableRecord
2
MAGENTA3
70
0
62
221
6
CONTINUOUS
370
-3
390
F
0
LAYER
5
5B
330
2
100
AcDbSymbolTableRecord
100
AcDbLayerTableRecord
2
YELLOW3
70
0
62
2
6
CONTINUOUS
370
-3
390
F
0
LAYER
5
5C
330
2
100
AcDbSymbolTableRecord
100
AcDbLayerTableRecord
2
BLUE4
70
0
62
5
6
CONTINUOUS
370
-3
390
F
0
LAYER
5
5D
330
2
100
AcDbSymbolTableRecord
100
AcDbLayerTableRecord
2
GREEN4
70
0
62
3
6
CONTINUOUS
370
-3
390
F
0
LAYER
5
5E
330
2
100
AcDbSymbolTableRecord
100
AcDbLayerTableRecord
2
CYAN4
70
0
62
4
6
CONTINUOUS
370
-3
390
F
0
LAYER
5
5F
330
2
100
AcDbSymbolTableRecord
100
AcDbLayerTableRecord
2
RED4
70
0
62
1
6
CONTINUOUS
370
-3
390
F
0
LAYER
5
60
330
2
100
AcDbSymbolTableRecord
100
AcDbLayerTableRecord
2
MAGENTA4
70
0
62
6
6
CONTINUOUS
370
-3
390
F
0
LAYER
5
61
330
2
100
AcDbSymbolTableRecord
100
AcDbLayerTableRecord
2
YELLOW4
70
0
62
2
6
CONTINUOUS
370
-3
390
F
0
LAYER
5
62
330
2
100
AcDbSymbolTableRecord
100
AcDbLayerTableRecord
2
Black
70
0
62
7
6
CONTINUOUS
370
-3
390
F
0
ENDTAB
0
TABLE
2
STYLE
5
3
330
0
100
AcDbSymbolTable
70
3
0
STYLE
5
63
330
2
100
AcDbSymbolTableRecord
100
AcDbTextStyleTableRecord
2
Standard
70
0
40
0
41
1
50
0
71
0
42
1
3
txt
4

0
ENDTAB
0
TABLE
2
VIEW
5
6
330
0
100
AcDbSymbolTable
70
0
0
ENDTAB
0
TABLE
2
UCS
5
7
330
0
100
AcDbSymbolTable
70
0
0
ENDTAB
0
TABLE
2
APPID
5
9
330
0
100
AcDbSymbolTable
70
1
0
APPID
5
12
330
9
100
AcDbSymbolTableRecord
100
AcDbRegAppTableRecord
2
ACAD
70
0
0
ENDTAB
0
TABLE
2
DIMSTYLE
5
A
330
0
100
AcDbSymbolTable
70
1
100
AcDbDimStyleTable
71
1
0
DIMSTYLE
105
64
330
A
100
AcDbSymbolTableRecord
100
AcDbDimStyleTableRecord
2
Standard
70
0
40
1
41
2.5
42
0.625
43
0.38
44
1.25
45
0
46
0
47
0
48
0
140
2.5
141
0.09
142
0
143
25.4
144
1
145
0
146
1
147
0.625
148
0
71
0
72
0
73
0
74
1
75
0
76
0
77
0
78
0
79
0
170
0
171
2
172
0
173
0
174
0
175
0
176
0
177
0
178
0
179
0
271
4
272
4
273
2
274
2
275
0
276
0
277
2
278
46
279
0
280
0
281
0
282
0
283
1
284
0
285
0
286
0
288
0
289
3
340
Standard
341

371
-2
372
-2
0
ENDTAB
0
TABLE
2
BLOCK_RECORD
5
1
330
0
100
AcDbSymbolTable
70
2
0
BLOCK_RECORD
5
1F
330
1
100
AcDbSymbolTableRecord
100
AcDbBlockTableRecord
2
*Model_Space
70
0
280
1
281
0
0
BLOCK_RECORD
5
1E
330
1
100
AcDbSymbolTableRecord
100
AcDbBlockTableRecord
2
*Paper_Space
70
0
280
1
281
0
0
BLOCK_RECORD
5
65
330
1
100
AcDbSymbolTableRecord
100
AcDbBlockTableRecord
2
*D1
70
0
280
1
281
0
0
BLOCK_RECORD
5
68
330
1
100
AcDbSymbolTableRecord
100
AcDbBlockTableRecord
2
*D4
70
0
280
1
281
0
0
BLOCK_RECORD
5
6B
330
1
100
AcDbSymbolTableRecord
100
AcDbBlockTableRecord
2
*D8
70
0
280
1
281
0
0
BLOCK_RECORD
5
6E
330
1
100
AcDbSymbolTableRecord
100
AcDbBlockTableRecord
2
*D2
70
0
280
1
281
0
0
BLOCK_RECORD
5
71
330
1
100
AcDbSymbolTableRecord
100
AcDbBlockTableRecord
2
*D6
70
0
280
1
281
0
0
BLOCK_RECORD
5
74
330
1
100
AcDbSymbolTableRecord
100
AcDbBlockTableRecord
2
*D5
70
0
280
1
281
0
0
BLOCK_RECORD
5
77
330
1
100
AcDbSymbolTableRecord
100
AcDbBlockTableRecord
2
*D9
70
0
280
1
281
0
0
BLOCK_RECORD
5
7A
330
1
100
AcDbSymbolTableRecord
100
AcDbBlockTableRecord
2
*D3
70
0
280
1
281
0
0
BLOCK_RECORD
5
7D
330
1
100
AcDbSymbolTableRecord
100
AcDbBlockTableRecord
2
*D7
70
0
280
1
281
0
0
ENDTAB
0
ENDSEC
0
SECTION
2
BLOCKS
0
BLOCK
5
20
330
1F
100
AcDbEntity
8
0
100
AcDbBlockBegin
2
*Model_Space
70
0
10
0
20
0
30
0
3
*Model_Space
1

0
ENDBLK
5
21
330
1F
100
AcDbEntity
8
0
100
AcDbBlockEnd
0
BLOCK
5
1C
330
1B
100
AcDbEntity
8
0
100
AcDbBlockBegin
2
*Paper_Space
70
0
10
0
20
0
30
0
3
*Paper_Space
1

0
ENDBLK
5
1D
330
1F
100
AcDbEntity
8
0
100
AcDbBlockEnd
0
BLOCK
5
66
330
65
100
AcDbEntity
8
0
100
AcDbBlockBegin
2
*D1
70
1
10
0
20
0
3
*D1
1

0
LINE
5
80
100
AcDbEntity
8
0
6
CONTINUOUS
62
7
370
0
100
AcDbLine
10
177.382
20
56
11
190.382
21
56
0
SOLID
5
81
100
AcDbEntity
8
0
6
CONTINUOUS
62
7
370
0
100
AcDbTrace
10
182.382
20
56
30
0
11
179.882
21
55.5837153422
31
0
12
179.882
22
56.4162846578
32
0
13
179.882
23
56.4162846578
33
0
0
SOLID
5
82
100
AcDbEntity
8
0
6
CONTINUOUS
62
7
370
0
100
AcDbTrace
10
185.382
20
56
30
0
11
187.882
21
56.4162846578
31
0
12
187.882
22
55.5837153422
32
0
13
187.882
23
55.5837153422
33
0
0
MTEXT
5
83
100
AcDbEntity
8
0
6
CONTINUOUS
62
7
370
0
100
AcDbMText
10
183.882
20
57.875
30
0
40
2.5
41
1.11111111111
71
5
72
1
1
3
7
standard
210
0
220
0
230
1
50
0
73
2
44
1
0
LINE
5
84
100
AcDbEntity
8
0
6
CONTINUOUS
62
7
370
0
100
AcDbLine
10
182.382
20
53.917
11
182.382
21
57.25
0
LINE
5
85
100
AcDbEntity
8
0
6
CONTINUOUS
62
7
370
0
100
AcDbLine
10
185.382
20
51.8241
11
185.382
21
57.25
0
ENDBLK
5
67
330
65
100
AcDbEntity
8
0
100
AcDbBlockEnd
0
BLOCK
5
69
330
68
100
AcDbEntity
8
0
100
AcDbBlockBegin
2
*D4
70
1
10
0
20
0
3
*D4
1

0
LINE
5
86
100
AcDbEntity
8
0
6
CONTINUOUS
62
7
370
0
100
AcDbLine
10
210
20
50.392
11
210
21
33.892
0
SOLID
5
87
100
AcDbEntity
8
0
6
CONTINUOUS
62
7
370
0
100
AcDbTrace
10
210
20
50.392
30
0
11
210.416284658
21
47.892
31
0
12
209.583715342
22
47.892
32
0
13
209.583715342
23
47.892
33
0
0
SOLID
5
88
100
AcDbEntity
8
0
6
CONTINUOUS
62
7
370
0
100
AcDbTrace
10
210
20
33.892
30
0
11
209.583715342
21
36.392
31
0
12
210.416284658
22
36.392
32
0
13
210.416284658
23
36.392
33
0
0
MTEXT
5
89
100
AcDbEntity
8
0
6
CONTINUOUS
62
7
370
0
100
AcDbMText
10
208.125
20
42.142
30
0
40
2.5
41
5.27777777778
71
5
72
1
1
16.5
7
standard
210
0
220
0
230
1
50
90
73
2
44
1
0
LINE
5
8A
100
AcDbEntity
8
0
6
CONTINUOUS
62
7
370
0
100
AcDbLine
10
186.814
20
50.392
11
211.25
21
50.392
0
LINE
5
8B
100
AcDbEntity
8
0
6
CONTINUOUS
62
7
370
0
100
AcDbLine
10
197.807
20
33.892
11
211.25
21
33.892
0
ENDBLK
5
6A
330
68
100
AcDbEntity
8
0
100
AcDbBlockEnd
0
BLOCK
5
6C
330
6B
100
AcDbEntity
8
0
100
AcDbBlockBegin
2
*D8
70
1
10
0
20
0
3
*D8
1

0
LINE
5
8C
100
AcDbEntity
8
0
6
CONTINUOUS
62
7
370
0
100
AcDbLine
10
134.882
20
99
11
185.382
21
99
0
SOLID
5
8D
100
AcDbEntity
8
0
6
CONTINUOUS
62
7
370
0
100
AcDbTrace
10
134.882
20
99
30
0
11
137.382
21
99.4162846578
31
0
12
137.382
22
98.5837153422
32
0
13
137.382
23
98.5837153422
33
0
0
SOLID
5
8E
100
AcDbEntity
8
0
6
CONTINUOUS
62
7
370
0
100
AcDbTrace
10
185.382
20
99
30
0
11
182.882
21
98.5837153422
31
0
12
182.882
22
99.4162846578
32
0
13
182.882
23
99.4162846578
33
0
0
MTEXT
5
8F
100
AcDbEntity
8
0
6
CONTINUOUS
62
7
370
0
100
AcDbMText
10
160.132
20
100.875
30
0
40
2.5
41
5.83333333333
71
5
72
1
1
50.5
7
standard
210
0
220
0
230
1
50
0
73
2
44
1
0
LINE
5
90
100
AcDbEntity
8
0
6
CONTINUOUS
62
7
370
0
100
AcDbLine
10
134.882
20
92.917
11
134.882
21
100.25
0
LINE
5
91
100
AcDbEntity
8
0
6
CONTINUOUS
62
7
370
0
100
AcDbLine
10
185.382
20
92.917
11
185.382
21
100.25
0
ENDBLK
5
6D
330
6B
100
AcDbEntity
8
0
100
AcDbBlockEnd
0
BLOCK
5
6F
330
6E
100
AcDbEntity
8
0
100
AcDbBlockBegin
2
*D2
70
1
10
0
20
0
3
*D2
1

0
LINE
5
92
100
AcDbEntity
8
0
6
CONTINUOUS
62
7
370
0
100
AcDbLine
10
143.382
20
56
11
129.882
21
56
0
SOLID
5
93
100
AcDbEntity
8
0
6
CONTINUOUS
62
7
370
0
100
AcDbTrace
10
138.382
20
56
30
0
11
140.882
21
56.4162846578
31
0
12
140.882
22
55.5837153422
32
0
13
140.882
23
55.5837153422
33
0
0
SOLID
5
94
100
AcDbEntity
8
0
6
CONTINUOUS
62
7
370
0
100
AcDbTrace
10
134.882
20
56
30
0
11
132.382
21
55.5837153422
31
0
12
132.382
22
56.4162846578
32
0
13
132.382
23
56.4162846578
33
0
0
MTEXT
5
95
100
AcDbEntity
8
0
6
CONTINUOUS
62
7
370
0
100
AcDbMText
10
140.951444444
20
57.875
30
0
40
2.5
41
3.88888888889
71
5
72
1
1
3.5
7
standard
210
0
220
0
230
1
50
360
73
2
44
1
0
LINE
5
96
100
AcDbEntity
8
0
6
CONTINUOUS
62
7
370
0
100
AcDbLine
10
138.382
20
53.917
11
138.382
21
57.25
0
LINE
5
97
100
AcDbEntity
8
0
6
CONTINUOUS
62
7
370
0
100
AcDbLine
10
134.882
20
46.417
11
134.882
21
57.25
0
ENDBLK
5
70
330
6E
100
AcDbEntity
8
0
100
AcDbBlockEnd
0
BLOCK
5
72
330
71
100
AcDbEntity
8
0
100
AcDbBlockBegin
2
*D6
70
1
10
0
20
0
3
*D6
1

0
LINE
5
98
100
AcDbEntity
8
0
6
CONTINUOUS
62
7
370
0
100
AcDbLine
10
120
20
33.892
11
120
21
45.792
0
SOLID
5
99
100
AcDbEntity
8
0
6
CONTINUOUS
62
7
370
0
100
AcDbTrace
10
120
20
33.892
30
0
11
119.583715342
21
36.392
31
0
12
120.416284658
22
36.392
32
0
13
120.416284658
23
36.392
33
0
0
SOLID
5
9A
100
AcDbEntity
8
0
6
CONTINUOUS
62
7
370
0
100
AcDbTrace
10
120
20
45.792
30
0
11
120.416284658
21
43.292
31
0
12
119.583715342
22
43.292
32
0
13
119.583715342
23
43.292
33
0
0
MTEXT
5
9B
100
AcDbEntity
8
0
6
CONTINUOUS
62
7
370
0
100
AcDbMText
10
118.125
20
39.842
30
0
40
2.5
41
4.72222222222
71
5
72
1
1
11.9
7
standard
210
0
220
0
230
1
50
90
73
2
44
1
0
LINE
5
9C
100
AcDbEntity
8
0
6
CONTINUOUS
62
7
370
0
100
AcDbLine
10
131.457
20
33.892
11
118.75
21
33.892
0
LINE
5
9D
100
AcDbEntity
8
0
6
CONTINUOUS
62
7
370
0
100
AcDbLine
10
131.457
20
45.792
11
118.75
21
45.792
0
ENDBLK
5
73
330
71
100
AcDbEntity
8
0
100
AcDbBlockEnd
0
BLOCK
5
75
330
74
100
AcDbEntity
8
0
100
AcDbBlockBegin
2
*D5
70
1
10
0
20
0
3
*D5
1

0
LINE
5
9E
100
AcDbEntity
8
0
6
CONTINUOUS
62
7
370
0
100
AcDbLine
10
197.682
20
20
11
131.582
21
20
0
SOLID
5
9F
100
AcDbEntity
8
0
6
CONTINUOUS
62
7
370
0
100
AcDbTrace
10
197.682
20
20
30
0
11
195.182
21
19.5837153422
31
0
12
195.182
22
20.4162846578
32
0
13
195.182
23
20.4162846578
33
0
0
SOLID
5
A0
100
AcDbEntity
8
0
6
CONTINUOUS
62
7
370
0
100
AcDbTrace
10
131.582
20
20
30
0
11
134.082
21
20.4162846578
31
0
12
134.082
22
19.5837153422
32
0
13
134.082
23
19.5837153422
33
0
0
MTEXT
5
A1
100
AcDbEntity
8
0
6
CONTINUOUS
62
7
370
0
100
AcDbMText
10
164.632
20
21.875
30
0
40
2.5
41
5.27777777778
71
5
72
1
1
66.1
7
standard
210
0
220
0
230
1
50
360
73
2
44
1
0
LINE
5
A2
100
AcDbEntity
8
0
6
CONTINUOUS
62
7
370
0
100
AcDbLine
10
197.682
20
33.767
11
197.682
21
18.75
0
LINE
5
A3
100
AcDbEntity
8
0
6
CONTINUOUS
62
7
370
0
100
AcDbLine
10
131.582
20
33.767
11
131.582
21
18.75
0
ENDBLK
5
76
330
74
100
AcDbEntity
8
0
100
AcDbBlockEnd
0
BLOCK
5
78
330
77
100
AcDbEntity
8
0
100
AcDbBlockBegin
2
*D9
70
1
10
0
20
0
3
*D9
1

0
LINE
5
A4
100
AcDbEntity
8
0
6
CONTINUOUS
62
7
370
0
100
AcDbLine
10
146
20
53.292
11
146
21
33.892
0
SOLID
5
A5
100
AcDbEntity
8
0
6
CONTINUOUS
62
7
370
0
100
AcDbTrace
10
146
20
53.292
30
0
11
146.416284658
21
50.792
31
0
12
145.583715342
22
50.792
32
0
13
145.583715342
23
50.792
33
0
0
SOLID
5
A6
100
AcDbEntity
8
0
6
CONTINUOUS
62
7
370
0
100
AcDbTrace
10
146
20
33.892
30
0
11
145.583715342
21
36.392
31
0
12
146.416284658
22
36.392
32
0
13
146.416284658
23
36.392
33
0
0
MTEXT
5
A7
100
AcDbEntity
8
0
6
CONTINUOUS
62
7
370
0
100
AcDbMText
10
144.125
20
43.592
30
0
40
2.5
41
5.55555555556
71
5
72
1
1
19.4
7
standard
210
0
220
0
230
1
50
90
73
2
44
1
0
LINE
5
A8
100
AcDbEntity
8
0
6
CONTINUOUS
62
7
370
0
100
AcDbLine
10
139.007
20
53.292
11
147.25
21
53.292
0
LINE
5
A9
100
AcDbEntity
8
0
6
CONTINUOUS
62
7
370
0
100
AcDbLine
10
138.987371441
20
33.892
11
147.25
21
33.892
0
ENDBLK
5
79
330
77
100
AcDbEntity
8
0
100
AcDbBlockEnd
0
BLOCK
5
7B
330
7A
100
AcDbEntity
8
0
100
AcDbBlockBegin
2
*D3
70
1
10
0
20
0
3
*D3
1

0
LINE
5
AA
100
AcDbEntity
8
0
6
CONTINUOUS
62
7
370
0
100
AcDbLine
10
210
20
92.792
11
210
21
50.392
0
SOLID
5
AB
100
AcDbEntity
8
0
6
CONTINUOUS
62
7
370
0
100
AcDbTrace
10
210
20
92.792
30
0
11
210.416284658
21
90.292
31
0
12
209.583715342
22
90.292
32
0
13
209.583715342
23
90.292
33
0
0
SOLID
5
AC
100
AcDbEntity
8
0
6
CONTINUOUS
62
7
370
0
100
AcDbTrace
10
210
20
50.392
30
0
11
209.583715342
21
52.892
31
0
12
210.416284658
22
52.892
32
0
13
210.416284658
23
52.892
33
0
0
MTEXT
5
AD
100
AcDbEntity
8
0
6
CONTINUOUS
62
7
370
0
100
AcDbMText
10
208.125
20
71.592
30
0
40
2.5
41
6.38888888889
71
5
72
1
1
42.4
7
standard
210
0
220
0
230
1
50
90
73
2
44
1
0
LINE
5
AE
100
AcDbEntity
8
0
6
CONTINUOUS
62
7
370
0
100
AcDbLine
10
185.507
20
92.792
11
211.25
21
92.792
0
LINE
5
AF
100
AcDbEntity
8
0
6
CONTINUOUS
62
7
370
0
100
AcDbLine
10
186.814
20
50.392
11
211.25
21
50.392
0
ENDBLK
5
7C
330
7A
100
AcDbEntity
8
0
100
AcDbBlockEnd
0
BLOCK
5
7E
330
7D
100
AcDbEntity
8
0
100
AcDbBlockBegin
2
*D7
70
1
10
0
20
0
3
*D7
1

0
LINE
5
B0
100
AcDbEntity
8
0
6
CONTINUOUS
62
7
370
0
100
AcDbLine
10
120
20
45.792
11
120
21
92.792
0
SOLID
5
B1
100
AcDbEntity
8
0
6
CONTINUOUS
62
7
370
0
100
AcDbTrace
10
120
20
45.792
30
0
11
119.583715342
21
48.292
31
0
12
120.416284658
22
48.292
32
0
13
120.416284658
23
48.292
33
0
0
SOLID
5
B2
100
AcDbEntity
8
0
6
CONTINUOUS
62
7
370
0
100
AcDbTrace
10
120
20
92.792
30
0
11
120.416284658
21
90.292
31
0
12
119.583715342
22
90.292
32
0
13
119.583715342
23
90.292
33
0
0
MTEXT
5
B3
100
AcDbEntity
8
0
6
CONTINUOUS
62
7
370
0
100
AcDbMText
10
118.125
20
69.292
30
0
40
2.5
41
3.33333333333
71
5
72
1
1
47
7
standard
210
0
220
0
230
1
50
90
73
2
44
1
0
LINE
5
B4
100
AcDbEntity
8
0
6
CONTINUOUS
62
7
370
0
100
AcDbLine
10
131.457
20
45.792
11
118.75
21
45.792
0
LINE
5
B5
100
AcDbEntity
8
0
6
CONTINUOUS
62
7
370
0
100
AcDbLine
10
134.757
20
92.792
11
118.75
21
92.792
0
ENDBLK
5
7F
330
7D
100
AcDbEntity
8
0
100
AcDbBlockEnd
0
ENDSEC
0
SECTION
2
ENTITIES
0
LINE
5
B6
100
AcDbEntity
8
Black
6
ByLayer
62
256
370
-1
100
AcDbLine
10
139.211
20
52.2372
11
139.076
21
52.1242
0
LINE
5
B7
100
AcDbEntity
8
Black
6
ByLayer
62
256
370
-1
100
AcDbLine
10
139.076
20
52.1242
11
139.046
21
52.1068
0
LINE
5
B8
100
AcDbEntity
8
Black
6
ByLayer
62
256
370
-1
100
AcDbLine
10
139.046
20
52.1068
11
138.635
21
51.9572
0
LINE
5
B9
100
AcDbEntity
8
Black
6
ByLayer
62
256
370
-1
100
AcDbLine
10
138.635
20
51.9572
11
138.601
21
51.9511
0
LINE
5
BA
100
AcDbEntity
8
Black
6
ByLayer
62
256
370
-1
100
AcDbLine
10
138.601
20
51.9511
11
138.482
21
51.9511
0
LINE
5
BB
100
AcDbEntity
8
Black
6
ByLayer
62
256
370
-1
100
AcDbLine
10
138.282
20
51.9511
11
138.163
21
51.9511
0
LINE
5
BC
100
AcDbEntity
8
Black
6
ByLayer
62
256
370
-1
100
AcDbLine
10
138.163
20
51.9511
11
138.129
21
51.9572
0
LINE
5
BD
100
AcDbEntity
8
Black
6
ByLayer
62
256
370
-1
100
AcDbLine
10
138.129
20
51.9572
11
137.718
21
52.1068
0
LINE
5
BE
100
AcDbEntity
8
Black
6
ByLayer
62
256
370
-1
100
AcDbLine
10
137.718
20
52.1068
11
137.688
21
52.1242
0
LINE
5
BF
100
AcDbEntity
8
Black
6
ByLayer
62
256
370
-1
100
AcDbLine
10
137.688
20
52.1242
11
137.353
21
52.4055
0
LINE
5
C0
100
AcDbEntity
8
Black
6
ByLayer
62
256
370
-1
100
AcDbLine
10
137.353
20
52.4055
11
137.353
21
52.4055
0
LINE
5
C1
100
AcDbEntity
8
Black
6
ByLayer
62
256
370
-1
100
AcDbLine
10
137.353
20
52.4055
11
137.33
21
52.4321
0
LINE
5
C2
100
AcDbEntity
8
Black
6
ByLayer
62
256
370
-1
100
AcDbLine
10
137.33
20
52.4321
11
137.111
21
52.8111
0
LINE
5
C3
100
AcDbEntity
8
Black
6
ByLayer
62
256
370
-1
100
AcDbLine
10
137.111
20
52.8111
11
137.1
21
52.8437
0
LINE
5
C4
100
AcDbEntity
8
Black
6
ByLayer
62
256
370
-1
100
AcDbLine
10
137.1
20
52.8437
11
137.038
21
53.192
0
LINE
5
C5
100
AcDbEntity
8
Black
6
ByLayer
62
256
370
-1
100
AcDbLine
10
137.038
20
53.392
11
137.1
21
53.7403
0
LINE
5
C6
100
AcDbEntity
8
Black
6
ByLayer
62
256
370
-1
100
AcDbLine
10
137.1
20
53.7403
11
137.111
21
53.7729
0
LINE
5
C7
100
AcDbEntity
8
Black
6
ByLayer
62
256
370
-1
100
AcDbLine
10
137.111
20
53.7729
11
137.33
21
54.1519
0
LINE
5
C8
100
AcDbEntity
8
Black
6
ByLayer
62
256
370
-1
100
AcDbLine
10
137.33
20
54.1519
11
137.353
21
54.1785
0
LINE
5
C9
100
AcDbEntity
8
Black
6
ByLayer
62
256
370
-1
100
AcDbLine
10
137.353
20
54.1785
11
137.353
21
54.1785
0
LINE
5
CA
100
AcDbEntity
8
Black
6
ByLayer
62
256
370
-1
100
AcDbLine
10
137.353
20
54.1785
11
137.353
21
54.1785
0
LINE
5
CB
100
AcDbEntity
8
Black
6
ByLayer
62
256
370
-1
100
AcDbLine
10
137.353
20
54.1785
11
137.353
21
54.1785
0
LINE
5
CC
100
AcDbEntity
8
Black
6
ByLayer
62
256
370
-1
100
AcDbLine
10
137.353
20
54.1785
11
137.688
21
54.4598
0
LINE
5
CD
100
AcDbEntity
8
Black
6
ByLayer
62
256
370
-1
100
AcDbLine
10
137.688
20
54.4598
11
137.718
21
54.4772
0
LINE
5
CE
100
AcDbEntity
8
Black
6
ByLayer
62
256
370
-1
100
AcDbLine
10
137.718
20
54.4772
11
138.129
21
54.6268
0
LINE
5
CF
100
AcDbEntity
8
Black
6
ByLayer
62
256
370
-1
100
AcDbLine
10
138.129
20
54.6268
11
138.163
21
54.6329
0
LINE
5
D0
100
AcDbEntity
8
Black
6
ByLayer
62
256
370
-1
100
AcDbLine
10
138.163
20
54.6329
11
138.601
21
54.6329
0
LINE
5
D1
100
AcDbEntity
8
Black
6
ByLayer
62
256
370
-1
100
AcDbLine
10
138.601
20
54.6329
11
138.635
21
54.6268
0
LINE
5
D2
100
AcDbEntity
8
Black
6
ByLayer
62
256
370
-1
100
AcDbLine
10
138.635
20
54.6268
11
138.907
21
54.5277
0
LINE
5
D3
100
AcDbEntity
8
Black
6
ByLayer
62
256
370
-1
100
AcDbLine
10
139.115
20
54.4277
11
139.411
21
54.1785
0
LINE
5
D4
100
AcDbEntity
8
Black
6
ByLayer
62
256
370
-1
100
AcDbLine
10
139.411
20
54.1785
11
139.434
21
54.1519
0
LINE
5
D5
100
AcDbEntity
8
Black
6
ByLayer
62
256
370
-1
100
AcDbLine
10
139.434
20
54.1519
11
139.464
21
54.0991
0
LINE
5
D6
100
AcDbEntity
8
Black
6
ByLayer
62
256
370
-1
100
AcDbLine
10
139.522
20
53.9991
11
139.653
21
53.7729
0
LINE
5
D7
100
AcDbEntity
8
Black
6
ByLayer
62
256
370
-1
100
AcDbLine
10
139.653
20
53.7729
11
139.661
21
53.749
0
LINE
5
D8
100
AcDbEntity
8
Black
6
ByLayer
62
256
370
-1
100
AcDbLine
10
139.661
20
53.749
11
139.664
21
53.7403
0
LINE
5
D9
100
AcDbEntity
8
Black
6
ByLayer
62
256
370
-1
100
AcDbLine
10
139.664
20
53.7403
11
139.664
21
53.7403
0
LINE
5
DA
100
AcDbEntity
8
Black
6
ByLayer
62
256
370
-1
100
AcDbLine
10
139.664
20
53.7403
11
139.74
21
53.3094
0
LINE
5
DB
100
AcDbEntity
8
Black
6
ByLayer
62
256
370
-1
100
AcDbLine
10
139.74
20
53.3094
11
139.74
21
53.2746
0
LINE
5
DC
100
AcDbEntity
8
Black
6
ByLayer
62
256
370
-1
100
AcDbLine
10
139.74
20
53.2746
11
139.664
21
52.8437
0
LINE
5
DD
100
AcDbEntity
8
Black
6
ByLayer
62
256
370
-1
100
AcDbLine
10
139.664
20
52.8437
11
139.664
21
52.8437
0
LINE
5
DE
100
AcDbEntity
8
Black
6
ByLayer
62
256
370
-1
100
AcDbLine
10
139.664
20
52.8437
11
139.661
21
52.835
0
LINE
5
DF
100
AcDbEntity
8
Black
6
ByLayer
62
256
370
-1
100
AcDbLine
10
139.661
20
52.835
11
139.653
21
52.8111
0
LINE
5
E0
100
AcDbEntity
8
Black
6
ByLayer
62
256
370
-1
100
AcDbLine
10
139.653
20
52.8111
11
139.653
21
52.8111
0
LINE
5
E1
100
AcDbEntity
8
Black
6
ByLayer
62
256
370
-1
100
AcDbLine
10
139.653
20
52.8111
11
139.516
21
52.5741
0
LINE
5
E2
100
AcDbEntity
8
Black
6
ByLayer
62
256
370
-1
100
AcDbLine
10
139.516
20
52.5741
11
139.434
21
52.4321
0
LINE
5
E3
100
AcDbEntity
8
Black
6
ByLayer
62
256
370
-1
100
AcDbLine
10
139.434
20
52.4321
11
139.411
21
52.4055
0
LINE
5
E4
100
AcDbEntity
8
Black
6
ByLayer
62
256
370
-1
100
AcDbLine
10
139.411
20
52.4055
11
139.411
21
52.4055
0
LINE
5
E5
100
AcDbEntity
8
Black
6
ByLayer
62
256
370
-1
100
AcDbLine
10
139.411
20
52.4055
11
139.338
21
52.3437
0
LINE
5
E6
100
AcDbEntity
8
Black
6
ByLayer
62
256
370
-1
100
AcDbLine
10
139.338
20
52.3437
11
139.33
21
52.3372
0
LINE
5
E7
100
AcDbEntity
8
Black
6
ByLayer
62
256
370
-1
100
AcDbLine
10
183.434
20
52.4321
11
183.411
21
52.4055
0
LINE
5
E8
100
AcDbEntity
8
Black
6
ByLayer
62
256
370
-1
100
AcDbLine
10
183.411
20
52.4055
11
183.411
21
52.4055
0
LINE
5
E9
100
AcDbEntity
8
Black
6
ByLayer
62
256
370
-1
100
AcDbLine
10
183.411
20
52.4055
11
183.076
21
52.1242
0
LINE
5
EA
100
AcDbEntity
8
Black
6
ByLayer
62
256
370
-1
100
AcDbLine
10
183.076
20
52.1242
11
183.046
21
52.1068
0
LINE
5
EB
100
AcDbEntity
8
Black
6
ByLayer
62
256
370
-1
100
AcDbLine
10
183.046
20
52.1068
11
182.635
21
51.9572
0
LINE
5
EC
100
AcDbEntity
8
Black
6
ByLayer
62
256
370
-1
100
AcDbLine
10
182.635
20
51.9572
11
182.601
21
51.9511
0
LINE
5
ED
100
AcDbEntity
8
Black
6
ByLayer
62
256
370
-1
100
AcDbLine
10
182.601
20
51.9511
11
182.482
21
51.9511
0
LINE
5
EE
100
AcDbEntity
8
Black
6
ByLayer
62
256
370
-1
100
AcDbLine
10
182.282
20
51.9511
11
182.163
21
51.9511
0
LINE
5
EF
100
AcDbEntity
8
Black
6
ByLayer
62
256
370
-1
100
AcDbLine
10
182.163
20
51.9511
11
182.129
21
51.9572
0
LINE
5
F0
100
AcDbEntity
8
Black
6
ByLayer
62
256
370
-1
100
AcDbLine
10
182.129
20
51.9572
11
181.718
21
52.1068
0
LINE
5
F1
100
AcDbEntity
8
Black
6
ByLayer
62
256
370
-1
100
AcDbLine
10
181.718
20
52.1068
11
181.688
21
52.1242
0
LINE
5
F2
100
AcDbEntity
8
Black
6
ByLayer
62
256
370
-1
100
AcDbLine
10
181.688
20
52.1242
11
181.353
21
52.4055
0
LINE
5
F3
100
AcDbEntity
8
Black
6
ByLayer
62
256
370
-1
100
AcDbLine
10
181.353
20
52.4055
11
181.353
21
52.4055
0
LINE
5
F4
100
AcDbEntity
8
Black
6
ByLayer
62
256
370
-1
100
AcDbLine
10
181.353
20
52.4055
11
181.33
21
52.4321
0
LINE
5
F5
100
AcDbEntity
8
Black
6
ByLayer
62
256
370
-1
100
AcDbLine
10
181.33
20
52.4321
11
181.111
21
52.8111
0
LINE
5
F6
100
AcDbEntity
8
Black
6
ByLayer
62
256
370
-1
100
AcDbLine
10
181.111
20
52.8111
11
181.1
21
52.8437
0
LINE
5
F7
100
AcDbEntity
8
Black
6
ByLayer
62
256
370
-1
100
AcDbLine
10
181.1
20
52.8437
11
181.024
21
53.2746
0
LINE
5
F8
100
AcDbEntity
8
Black
6
ByLayer
62
256
370
-1
100
AcDbLine
10
181.024
20
53.2746
11
181.024
21
53.3094
0
LINE
5
F9
100
AcDbEntity
8
Black
6
ByLayer
62
256
370
-1
100
AcDbLine
10
181.024
20
53.3094
11
181.1
21
53.7403
0
LINE
5
FA
100
AcDbEntity
8
Black
6
ByLayer
62
256
370
-1
100
AcDbLine
10
181.1
20
53.7403
11
181.111
21
53.7729
0
LINE
5
FB
100
AcDbEntity
8
Black
6
ByLayer
62
256
370
-1
100
AcDbLine
10
181.111
20
53.7729
11
181.33
21
54.1519
0
LINE
5
FC
100
AcDbEntity
8
Black
6
ByLayer
62
256
370
-1
100
AcDbLine
10
181.33
20
54.1519
11
181.353
21
54.1785
0
LINE
5
FD
100
AcDbEntity
8
Black
6
ByLayer
62
256
370
-1
100
AcDbLine
10
181.353
20
54.1785
11
181.353
21
54.1785
0
LINE
5
FE
100
AcDbEntity
8
Black
6
ByLayer
62
256
370
-1
100
AcDbLine
10
181.353
20
54.1785
11
181.353
21
54.1785
0
LINE
5
FF
100
AcDbEntity
8
Black
6
ByLayer
62
256
370
-1
100
AcDbLine
10
181.353
20
54.1785
11
181.353
21
54.1785
0
LINE
5
100
100
AcDbEntity
8
Black
6
ByLayer
62
256
370
-1
100
AcDbLine
10
181.353
20
54.1785
11
181.688
21
54.4598
0
LINE
5
101
100
AcDbEntity
8
Black
6
ByLayer
62
256
370
-1
100
AcDbLine
10
181.688
20
54.4598
11
181.718
21
54.4772
0
LINE
5
102
100
AcDbEntity
8
Black
6
ByLayer
62
256
370
-1
100
AcDbLine
10
181.718
20
54.4772
11
182.129
21
54.6268
0
LINE
5
103
100
AcDbEntity
8
Black
6
ByLayer
62
256
370
-1
100
AcDbLine
10
182.129
20
54.6268
11
182.163
21
54.6329
0
LINE
5
104
100
AcDbEntity
8
Black
6
ByLayer
62
256
370
-1
100
AcDbLine
10
182.163
20
54.6329
11
182.601
21
54.6329
0
LINE
5
105
100
AcDbEntity
8
Black
6
ByLayer
62
256
370
-1
100
AcDbLine
10
182.601
20
54.6329
11
182.635
21
54.6268
0
LINE
5
106
100
AcDbEntity
8
Black
6
ByLayer
62
256
370
-1
100
AcDbLine
10
182.635
20
54.6268
11
183.046
21
54.4772
0
LINE
5
107
100
AcDbEntity
8
Black
6
ByLayer
62
256
370
-1
100
AcDbLine
10
183.046
20
54.4772
11
183.076
21
54.4598
0
LINE
5
108
100
AcDbEntity
8
Black
6
ByLayer
62
256
370
-1
100
AcDbLine
10
183.076
20
54.4598
11
183.411
21
54.1785
0
LINE
5
109
100
AcDbEntity
8
Black
6
ByLayer
62
256
370
-1
100
AcDbLine
10
183.411
20
54.1785
11
183.434
21
54.1519
0
LINE
5
10A
100
AcDbEntity
8
Black
6
ByLayer
62
256
370
-1
100
AcDbLine
10
183.434
20
54.1519
11
183.653
21
53.7729
0
LINE
5
10B
100
AcDbEntity
8
Black
6
ByLayer
62
256
370
-1
100
AcDbLine
10
183.653
20
53.7729
11
183.661
21
53.749
0
LINE
5
10C
100
AcDbEntity
8
Black
6
ByLayer
62
256
370
-1
100
AcDbLine
10
183.661
20
53.749
11
183.664
21
53.7403
0
LINE
5
10D
100
AcDbEntity
8
Black
6
ByLayer
62
256
370
-1
100
AcDbLine
10
183.664
20
53.7403
11
183.664
21
53.7403
0
LINE
5
10E
100
AcDbEntity
8
Black
6
ByLayer
62
256
370
-1
100
AcDbLine
10
183.664
20
53.7403
11
183.726
21
53.392
0
LINE
5
10F
100
AcDbEntity
8
Black
6
ByLayer
62
256
370
-1
100
AcDbLine
10
183.726
20
53.192
11
183.664
21
52.8437
0
LINE
5
110
100
AcDbEntity
8
Black
6
ByLayer
62
256
370
-1
100
AcDbLine
10
183.664
20
52.8437
11
183.664
21
52.8437
0
LINE
5
111
100
AcDbEntity
8
Black
6
ByLayer
62
256
370
-1
100
AcDbLine
10
183.664
20
52.8437
11
183.661
21
52.835
0
LINE
5
112
100
AcDbEntity
8
Black
6
ByLayer
62
256
370
-1
100
AcDbLine
10
183.661
20
52.835
11
183.653
21
52.8111
0
LINE
5
113
100
AcDbEntity
8
Black
6
ByLayer
62
256
370
-1
100
AcDbLine
10
183.653
20
52.8111
11
183.653
21
52.8111
0
LINE
5
114
100
AcDbEntity
8
Black
6
ByLayer
62
256
370
-1
100
AcDbLine
10
183.653
20
52.8111
11
183.523
21
52.5862
0
LINE
5
115
100
AcDbEntity
8
Black
6
ByLayer
62
256
370
-1
100
AcDbLine
10
183.523
20
52.5862
11
183.434
21
52.4321
0
LINE
5
116
100
AcDbEntity
8
Black
6
ByLayer
62
256
370
-1
100
AcDbLine
10
132.039
20
33.8996
11
131.995
21
33.8996
0
LINE
5
117
100
AcDbEntity
8
Black
6
ByLayer
62
256
370
-1
100
AcDbLine
10
131.995
20
33.8996
11
131.954
21
33.9146
0
LINE
5
118
100
AcDbEntity
8
Black
6
ByLayer
62
256
370
-1
100
AcDbLine
10
131.954
20
33.9146
11
131.911
21
33.9222
0
LINE
5
119
100
AcDbEntity
8
Black
6
ByLayer
62
256
370
-1
100
AcDbLine
10
131.911
20
33.9222
11
131.873
21
33.944
0
LINE
5
11A
100
AcDbEntity
8
Black
6
ByLayer
62
256
370
-1
100
AcDbLine
10
131.873
20
33.944
11
131.832
21
33.959
0
LINE
5
11B
100
AcDbEntity
8
Black
6
ByLayer
62
256
370
-1
100
AcDbLine
10
131.832
20
33.959
11
131.798
21
33.9871
0
LINE
5
11C
100
AcDbEntity
8
Black
6
ByLayer
62
256
370
-1
100
AcDbLine
10
131.798
20
33.9871
11
131.761
21
34.009
0
LINE
5
11D
100
AcDbEntity
8
Black
6
ByLayer
62
256
370
-1
100
AcDbLine
10
131.761
20
34.009
11
131.732
21
34.0425
0
LINE
5
11E
100
AcDbEntity
8
Black
6
ByLayer
62
256
370
-1
100
AcDbLine
10
131.732
20
34.0425
11
131.699
21
34.0706
0
LINE
5
11F
100
AcDbEntity
8
Black
6
ByLayer
62
256
370
-1
100
AcDbLine
10
131.699
20
34.0706
11
131.677
21
34.1085
0
LINE
5
120
100
AcDbEntity
8
Black
6
ByLayer
62
256
370
-1
100
AcDbLine
10
131.677
20
34.1085
11
131.649
21
34.142
0
LINE
5
121
100
AcDbEntity
8
Black
6
ByLayer
62
256
370
-1
100
AcDbLine
10
131.649
20
34.142
11
131.634
21
34.1831
0
LINE
5
122
100
AcDbEntity
8
Black
6
ByLayer
62
256
370
-1
100
AcDbLine
10
131.634
20
34.1831
11
131.612
21
34.221
0
LINE
5
123
100
AcDbEntity
8
Black
6
ByLayer
62
256
370
-1
100
AcDbLine
10
131.612
20
34.221
11
131.605
21
34.2641
0
LINE
5
124
100
AcDbEntity
8
Black
6
ByLayer
62
256
370
-1
100
AcDbLine
10
131.605
20
34.2641
11
131.59
21
34.3052
0
LINE
5
125
100
AcDbEntity
8
Black
6
ByLayer
62
256
370
-1
100
AcDbLine
10
131.59
20
34.3052
11
131.59
21
34.3489
0
LINE
5
126
100
AcDbEntity
8
Black
6
ByLayer
62
256
370
-1
100
AcDbLine
10
131.59
20
34.3489
11
131.582
21
34.392
0
LINE
5
127
100
AcDbEntity
8
Black
6
ByLayer
62
256
370
-1
100
AcDbLine
10
131.582
20
34.392
11
131.582
21
45.292
0
LINE
5
128
100
AcDbEntity
8
Black
6
ByLayer
62
256
370
-1
100
AcDbLine
10
131.582
20
45.292
11
131.59
21
45.3351
0
LINE
5
129
100
AcDbEntity
8
Black
6
ByLayer
62
256
370
-1
100
AcDbLine
10
131.59
20
45.3351
11
131.59
21
45.3788
0
LINE
5
12A
100
AcDbEntity
8
Black
6
ByLayer
62
256
370
-1
100
AcDbLine
10
131.59
20
45.3788
11
131.605
21
45.4199
0
LINE
5
12B
100
AcDbEntity
8
Black
6
ByLayer
62
256
370
-1
100
AcDbLine
10
131.605
20
45.4199
11
131.612
21
45.463
0
LINE
5
12C
100
AcDbEntity
8
Black
6
ByLayer
62
256
370
-1
100
AcDbLine
10
131.612
20
45.463
11
131.634
21
45.5009
0
LINE
5
12D
100
AcDbEntity
8
Black
6
ByLayer
62
256
370
-1
100
AcDbLine
10
131.634
20
45.5009
11
131.649
21
45.542
0
LINE
5
12E
100
AcDbEntity
8
Black
6
ByLayer
62
256
370
-1
100
AcDbLine
10
131.649
20
45.542
11
131.677
21
45.5755
0
LINE
5
12F
100
AcDbEntity
8
Black
6
ByLayer
62
256
370
-1
100
AcDbLine
10
131.677
20
45.5755
11
131.699
21
45.6134
0
LINE
5
130
100
AcDbEntity
8
Black
6
ByLayer
62
256
370
-1
100
AcDbLine
10
131.699
20
45.6134
11
131.732
21
45.6415
0
LINE
5
131
100
AcDbEntity
8
Black
6
ByLayer
62
256
370
-1
100
AcDbLine
10
131.732
20
45.6415
11
131.761
21
45.675
0
LINE
5
132
100
AcDbEntity
8
Black
6
ByLayer
62
256
370
-1
100
AcDbLine
10
131.761
20
45.675
11
131.798
21
45.6969
0
LINE
5
133
100
AcDbEntity
8
Black
6
ByLayer
62
256
370
-1
100
AcDbLine
10
131.798
20
45.6969
11
131.832
21
45.725
0
LINE
5
134
100
AcDbEntity
8
Black
6
ByLayer
62
256
370
-1
100
AcDbLine
10
131.832
20
45.725
11
131.873
21
45.74
0
LINE
5
135
100
AcDbEntity
8
Black
6
ByLayer
62
256
370
-1
100
AcDbLine
10
131.873
20
45.74
11
131.911
21
45.7618
0
LINE
5
136
100
AcDbEntity
8
Black
6
ByLayer
62
256
370
-1
100
AcDbLine
10
131.911
20
45.7618
11
131.954
21
45.7694
0
LINE
5
137
100
AcDbEntity
8
Black
6
ByLayer
62
256
370
-1
100
AcDbLine
10
131.954
20
45.7694
11
131.995
21
45.7844
0
LINE
5
138
100
AcDbEntity
8
Black
6
ByLayer
62
256
370
-1
100
AcDbLine
10
131.995
20
45.7844
11
132.039
21
45.7844
0
LINE
5
139
100
AcDbEntity
8
Black
6
ByLayer
62
256
370
-1
100
AcDbLine
10
132.039
20
45.7844
11
132.082
21
45.792
0
LINE
5
13A
100
AcDbEntity
8
Black
6
ByLayer
62
256
370
-1
100
AcDbLine
10
132.082
20
45.792
11
134.882
21
45.792
0
LINE
5
13B
100
AcDbEntity
8
Black
6
ByLayer
62
256
370
-1
100
AcDbLine
10
134.882
20
45.792
11
134.882
21
92.292
0
LINE
5
13C
100
AcDbEntity
8
Black
6
ByLayer
62
256
370
-1
100
AcDbLine
10
134.882
20
92.292
11
134.89
21
92.3351
0
LINE
5
13D
100
AcDbEntity
8
Black
6
ByLayer
62
256
370
-1
100
AcDbLine
10
134.89
20
92.3351
11
134.89
21
92.3788
0
LINE
5
13E
100
AcDbEntity
8
Black
6
ByLayer
62
256
370
-1
100
AcDbLine
10
134.89
20
92.3788
11
134.905
21
92.4199
0
LINE
5
13F
100
AcDbEntity
8
Black
6
ByLayer
62
256
370
-1
100
AcDbLine
10
134.905
20
92.4199
11
134.912
21
92.463
0
LINE
5
140
100
AcDbEntity
8
Black
6
ByLayer
62
256
370
-1
100
AcDbLine
10
134.912
20
92.463
11
134.934
21
92.5009
0
LINE
5
141
100
AcDbEntity
8
Black
6
ByLayer
62
256
370
-1
100
AcDbLine
10
134.934
20
92.5009
11
134.949
21
92.542
0
LINE
5
142
100
AcDbEntity
8
Black
6
ByLayer
62
256
370
-1
100
AcDbLine
10
134.949
20
92.542
11
134.977
21
92.5755
0
LINE
5
143
100
AcDbEntity
8
Black
6
ByLayer
62
256
370
-1
100
AcDbLine
10
134.977
20
92.5755
11
134.999
21
92.6134
0
LINE
5
144
100
AcDbEntity
8
Black
6
ByLayer
62
256
370
-1
100
AcDbLine
10
134.999
20
92.6134
11
135.032
21
92.6415
0
LINE
5
145
100
AcDbEntity
8
Black
6
ByLayer
62
256
370
-1
100
AcDbLine
10
135.032
20
92.6415
11
135.061
21
92.675
0
LINE
5
146
100
AcDbEntity
8
Black
6
ByLayer
62
256
370
-1
100
AcDbLine
10
135.061
20
92.675
11
135.098
21
92.6969
0
LINE
5
147
100
AcDbEntity
8
Black
6
ByLayer
62
256
370
-1
100
AcDbLine
10
135.098
20
92.6969
11
135.132
21
92.725
0
LINE
5
148
100
AcDbEntity
8
Black
6
ByLayer
62
256
370
-1
100
AcDbLine
10
135.132
20
92.725
11
135.173
21
92.74
0
LINE
5
149
100
AcDbEntity
8
Black
6
ByLayer
62
256
370
-1
100
AcDbLine
10
135.173
20
92.74
11
135.211
21
92.7618
0
LINE
5
14A
100
AcDbEntity
8
Black
6
ByLayer
62
256
370
-1
100
AcDbLine
10
135.211
20
92.7618
11
135.254
21
92.7694
0
LINE
5
14B
100
AcDbEntity
8
Black
6
ByLayer
62
256
370
-1
100
AcDbLine
10
135.254
20
92.7694
11
135.295
21
92.7844
0
LINE
5
14C
100
AcDbEntity
8
Black
6
ByLayer
62
256
370
-1
100
AcDbLine
10
135.295
20
92.7844
11
135.339
21
92.7844
0
LINE
5
14D
100
AcDbEntity
8
Black
6
ByLayer
62
256
370
-1
100
AcDbLine
10
135.339
20
92.7844
11
135.382
21
92.792
0
LINE
5
14E
100
AcDbEntity
8
Black
6
ByLayer
62
256
370
-1
100
AcDbLine
10
135.382
20
92.792
11
184.882
21
92.792
0
LINE
5
14F
100
AcDbEntity
8
Black
6
ByLayer
62
256
370
-1
100
AcDbLine
10
184.882
20
92.792
11
184.925
21
92.7844
0
LINE
5
150
100
AcDbEntity
8
Black
6
ByLayer
62
256
370
-1
100
AcDbLine
10
184.925
20
92.7844
11
184.969
21
92.7844
0
LINE
5
151
100
AcDbEntity
8
Black
6
ByLayer
62
256
370
-1
100
AcDbLine
10
184.969
20
92.7844
11
185.01
21
92.7694
0
LINE
5
152
100
AcDbEntity
8
Black
6
ByLayer
62
256
370
-1
100
AcDbLine
10
185.01
20
92.7694
11
185.053
21
92.7618
0
LINE
5
153
100
AcDbEntity
8
Black
6
ByLayer
62
256
370
-1
100
AcDbLine
10
185.053
20
92.7618
11
185.091
21
92.74
0
LINE
5
154
100
AcDbEntity
8
Black
6
ByLayer
62
256
370
-1
100
AcDbLine
10
185.091
20
92.74
11
185.132
21
92.725
0
LINE
5
155
100
AcDbEntity
8
Black
6
ByLayer
62
256
370
-1
100
AcDbLine
10
185.132
20
92.725
11
185.166
21
92.6969
0
LINE
5
156
100
AcDbEntity
8
Black
6
ByLayer
62
256
370
-1
100
AcDbLine
10
185.166
20
92.6969
11
185.203
21
92.675
0
LINE
5
157
100
AcDbEntity
8
Black
6
ByLayer
62
256
370
-1
100
AcDbLine
10
185.203
20
92.675
11
185.232
21
92.6415
0
LINE
5
158
100
AcDbEntity
8
Black
6
ByLayer
62
256
370
-1
100
AcDbLine
10
185.232
20
92.6415
11
185.265
21
92.6134
0
LINE
5
159
100
AcDbEntity
8
Black
6
ByLayer
62
256
370
-1
100
AcDbLine
10
185.265
20
92.6134
11
185.287
21
92.5755
0
LINE
5
15A
100
AcDbEntity
8
Black
6
ByLayer
62
256
370
-1
100
AcDbLine
10
185.287
20
92.5755
11
185.315
21
92.542
0
LINE
5
15B
100
AcDbEntity
8
Black
6
ByLayer
62
256
370
-1
100
AcDbLine
10
185.315
20
92.542
11
185.33
21
92.5009
0
LINE
5
15C
100
AcDbEntity
8
Black
6
ByLayer
62
256
370
-1
100
AcDbLine
10
185.33
20
92.5009
11
185.352
21
92.463
0
LINE
5
15D
100
AcDbEntity
8
Black
6
ByLayer
62
256
370
-1
100
AcDbLine
10
185.352
20
92.463
11
185.359
21
92.4199
0
LINE
5
15E
100
AcDbEntity
8
Black
6
ByLayer
62
256
370
-1
100
AcDbLine
10
185.359
20
92.4199
11
185.374
21
92.3788
0
LINE
5
15F
100
AcDbEntity
8
Black
6
ByLayer
62
256
370
-1
100
AcDbLine
10
185.374
20
92.3788
11
185.374
21
92.3351
0
LINE
5
160
100
AcDbEntity
8
Black
6
ByLayer
62
256
370
-1
100
AcDbLine
10
185.374
20
92.3351
11
185.382
21
92.292
0
LINE
5
161
100
AcDbEntity
8
Black
6
ByLayer
62
256
370
-1
100
AcDbLine
10
185.382
20
92.292
11
185.382
21
51.1991
0
LINE
5
162
100
AcDbEntity
8
Black
6
ByLayer
62
256
370
-1
100
AcDbLine
10
185.382
20
51.1991
11
186.189
21
50.392
0
LINE
5
163
100
AcDbEntity
8
Black
6
ByLayer
62
256
370
-1
100
AcDbLine
10
186.189
20
50.392
11
197.182
21
50.392
0
LINE
5
164
100
AcDbEntity
8
Black
6
ByLayer
62
256
370
-1
100
AcDbLine
10
197.182
20
50.392
11
197.225
21
50.3844
0
LINE
5
165
100
AcDbEntity
8
Black
6
ByLayer
62
256
370
-1
100
AcDbLine
10
197.225
20
50.3844
11
197.269
21
50.3844
0
LINE
5
166
100
AcDbEntity
8
Black
6
ByLayer
62
256
370
-1
100
AcDbLine
10
197.269
20
50.3844
11
197.31
21
50.3694
0
LINE
5
167
100
AcDbEntity
8
Black
6
ByLayer
62
256
370
-1
100
AcDbLine
10
197.31
20
50.3694
11
197.353
21
50.3618
0
LINE
5
168
100
AcDbEntity
8
Black
6
ByLayer
62
256
370
-1
100
AcDbLine
10
197.353
20
50.3618
11
197.391
21
50.34
0
LINE
5
169
100
AcDbEntity
8
Black
6
ByLayer
62
256
370
-1
100
AcDbLine
10
197.391
20
50.34
11
197.432
21
50.325
0
LINE
5
16A
100
AcDbEntity
8
Black
6
ByLayer
62
256
370
-1
100
AcDbLine
10
197.432
20
50.325
11
197.466
21
50.2969
0
LINE
5
16B
100
AcDbEntity
8
Black
6
ByLayer
62
256
370
-1
100
AcDbLine
10
197.466
20
50.2969
11
197.503
21
50.275
0
LINE
5
16C
100
AcDbEntity
8
Black
6
ByLayer
62
256
370
-1
100
AcDbLine
10
197.503
20
50.275
11
197.532
21
50.2415
0
LINE
5
16D
100
AcDbEntity
8
Black
6
ByLayer
62
256
370
-1
100
AcDbLine
10
197.532
20
50.2415
11
197.565
21
50.2134
0
LINE
5
16E
100
AcDbEntity
8
Black
6
ByLayer
62
256
370
-1
100
AcDbLine
10
197.565
20
50.2134
11
197.587
21
50.1755
0
LINE
5
16F
100
AcDbEntity
8
Black
6
ByLayer
62
256
370
-1
100
AcDbLine
10
197.587
20
50.1755
11
197.615
21
50.142
0
LINE
5
170
100
AcDbEntity
8
Black
6
ByLayer
62
256
370
-1
100
AcDbLine
10
197.615
20
50.142
11
197.63
21
50.1009
0
LINE
5
171
100
AcDbEntity
8
Black
6
ByLayer
62
256
370
-1
100
AcDbLine
10
197.63
20
50.1009
11
197.652
21
50.063
0
LINE
5
172
100
AcDbEntity
8
Black
6
ByLayer
62
256
370
-1
100
AcDbLine
10
197.652
20
50.063
11
197.659
21
50.0199
0
LINE
5
173
100
AcDbEntity
8
Black
6
ByLayer
62
256
370
-1
100
AcDbLine
10
197.659
20
50.0199
11
197.674
21
49.9788
0
LINE
5
174
100
AcDbEntity
8
Black
6
ByLayer
62
256
370
-1
100
AcDbLine
10
197.674
20
49.9788
11
197.674
21
49.9351
0
LINE
5
175
100
AcDbEntity
8
Black
6
ByLayer
62
256
370
-1
100
AcDbLine
10
197.674
20
49.9351
11
197.682
21
49.892
0
LINE
5
176
100
AcDbEntity
8
Black
6
ByLayer
62
256
370
-1
100
AcDbLine
10
197.682
20
49.892
11
197.682
21
34.392
0
LINE
5
177
100
AcDbEntity
8
Black
6
ByLayer
62
256
370
-1
100
AcDbLine
10
197.682
20
34.392
11
197.674
21
34.3489
0
LINE
5
178
100
AcDbEntity
8
Black
6
ByLayer
62
256
370
-1
100
AcDbLine
10
197.674
20
34.3489
11
197.674
21
34.3052
0
LINE
5
179
100
AcDbEntity
8
Black
6
ByLayer
62
256
370
-1
100
AcDbLine
10
197.674
20
34.3052
11
197.659
21
34.2641
0
LINE
5
17A
100
AcDbEntity
8
Black
6
ByLayer
62
256
370
-1
100
AcDbLine
10
197.659
20
34.2641
11
197.652
21
34.221
0
LINE
5
17B
100
AcDbEntity
8
Black
6
ByLayer
62
256
370
-1
100
AcDbLine
10
197.652
20
34.221
11
197.63
21
34.1831
0
LINE
5
17C
100
AcDbEntity
8
Black
6
ByLayer
62
256
370
-1
100
AcDbLine
10
197.63
20
34.1831
11
197.615
21
34.142
0
LINE
5
17D
100
AcDbEntity
8
Black
6
ByLayer
62
256
370
-1
100
AcDbLine
10
197.615
20
34.142
11
197.587
21
34.1085
0
LINE
5
17E
100
AcDbEntity
8
Black
6
ByLayer
62
256
370
-1
100
AcDbLine
10
197.587
20
34.1085
11
197.565
21
34.0706
0
LINE
5
17F
100
AcDbEntity
8
Black
6
ByLayer
62
256
370
-1
100
AcDbLine
10
197.565
20
34.0706
11
197.532
21
34.0425
0
LINE
5
180
100
AcDbEntity
8
Black
6
ByLayer
62
256
370
-1
100
AcDbLine
10
197.532
20
34.0425
11
197.503
21
34.009
0
LINE
5
181
100
AcDbEntity
8
Black
6
ByLayer
62
256
370
-1
100
AcDbLine
10
197.503
20
34.009
11
197.466
21
33.9871
0
LINE
5
182
100
AcDbEntity
8
Black
6
ByLayer
62
256
370
-1
100
AcDbLine
10
197.466
20
33.9871
11
197.432
21
33.959
0
LINE
5
183
100
AcDbEntity
8
Black
6
ByLayer
62
256
370
-1
100
AcDbLine
10
197.432
20
33.959
11
197.391
21
33.944
0
LINE
5
184
100
AcDbEntity
8
Black
6
ByLayer
62
256
370
-1
100
AcDbLine
10
197.391
20
33.944
11
197.353
21
33.9222
0
LINE
5
185
100
AcDbEntity
8
Black
6
ByLayer
62
256
370
-1
100
AcDbLine
10
197.353
20
33.9222
11
197.31
21
33.9146
0
LINE
5
186
100
AcDbEntity
8
Black
6
ByLayer
62
256
370
-1
100
AcDbLine
10
197.31
20
33.9146
11
197.269
21
33.8996
0
LINE
5
187
100
AcDbEntity
8
Black
6
ByLayer
62
256
370
-1
100
AcDbLine
10
197.269
20
33.8996
11
197.225
21
33.8996
0
LINE
5
188
100
AcDbEntity
8
Black
6
ByLayer
62
256
370
-1
100
AcDbLine
10
197.225
20
33.8996
11
197.182
21
33.892
0
LINE
5
189
100
AcDbEntity
8
Black
6
ByLayer
62
256
370
-1
100
AcDbLine
10
197.182
20
33.892
11
132.082
21
33.892
0
LINE
5
18A
100
AcDbEntity
8
Black
6
ByLayer
62
256
370
-1
100
AcDbLine
10
132.082
20
33.892
11
132.039
21
33.8996
0
DIMENSION
5
18B
100
AcDbEntity
8
0
6
ByLayer
62
256
370
-1
100
AcDbDimension
2
*D1
10
185.382
20
56
30
0
11
183.882
21
57.875
31
0
70
32
71
5
3
Standard
53
0
210
0
220
0
230
1
100
AcDbAlignedDimension
13
182.382
23
53.292
33
0
14
185.382
24
51.1991
34
0
100
AcDbRotatedDimension
0
DIMENSION
5
18C
100
AcDbEntity
8
0
6
ByLayer
62
256
370
-1
100
AcDbDimension
2
*D2
10
134.882
20
56
30
0
11
136.632
21
57.875
31
0
70
32
71
5
3
Standard
53
0
210
0
220
0
230
1
100
AcDbAlignedDimension
13
138.382
23
53.292
33
0
14
134.882
24
45.792
34
0
100
AcDbRotatedDimension
0
DIMENSION
5
18D
100
AcDbEntity
8
0
6
ByLayer
62
256
370
-1
100
AcDbDimension
2
*D3
10
210
20
50.392
30
0
11
208.125
21
71.592
31
0
70
32
71
5
3
Standard
53
0
210
0
220
0
230
1
100
AcDbAlignedDimension
13
184.882
23
92.792
33
0
14
186.189
24
50.392
34
0
50
90
100
AcDbRotatedDimension
0
DIMENSION
5
18E
100
AcDbEntity
8
0
6
ByLayer
62
256
370
-1
100
AcDbDimension
2
*D4
10
210
20
33.892
30
0
11
208.125
21
42.142
31
0
70
32
71
5
3
Standard
53
0
210
0
220
0
230
1
100
AcDbAlignedDimension
13
186.189
23
50.392
33
0
14
197.182
24
33.892
34
0
50
90
100
AcDbRotatedDimension
0
DIMENSION
5
18F
100
AcDbEntity
8
0
6
ByLayer
62
256
370
-1
100
AcDbDimension
2
*D5
10
131.582
20
20
30
0
11
164.632
21
21.875
31
0
70
32
71
5
3
Standard
53
0
210
0
220
0
230
1
100
AcDbAlignedDimension
13
197.682
23
34.392
33
0
14
131.582
24
34.392
34
0
100
AcDbRotatedDimension
0
DIMENSION
5
190
100
AcDbEntity
8
0
6
ByLayer
62
256
370
-1
100
AcDbDimension
2
*D6
10
120
20
45.792
30
0
11
118.125
21
39.842
31
0
70
32
71
5
3
Standard
53
0
210
0
220
0
230
1
100
AcDbAlignedDimension
13
132.082
23
33.892
33
0
14
132.082
24
45.792
34
0
50
90
100
AcDbRotatedDimension
0
DIMENSION
5
191
100
AcDbEntity
8
0
6
ByLayer
62
256
370
-1
100
AcDbDimension
2
*D7
10
120
20
92.792
30
0
11
118.125
21
69.292
31
0
70
32
71
5
3
Standard
53
0
210
0
220
0
230
1
100
AcDbAlignedDimension
13
132.082
23
45.792
33
0
14
135.382
24
92.792
34
0
50
90
100
AcDbRotatedDimension
0
DIMENSION
5
192
100
AcDbEntity
8
0
6
ByLayer
62
256
370
-1
100
AcDbDimension
2
*D8
10
185.382
20
99
30
0
11
160.132
21
100.875
31
0
70
32
71
5
3
Standard
53
0
210
0
220
0
230
1
100
AcDbAlignedDimension
13
134.882
23
92.292
33
0
14
185.382
24
92.292
34
0
100
AcDbRotatedDimension
0
DIMENSION
5
193
100
AcDbEntity
8
0
6
ByLayer
62
256
370
-1
100
AcDbDimension
2
*D9
10
146
20
33.892
30
0
11
144.125
21
43.592
31
0
70
32
71
5
3
Standard
53
0
210
0
220
0
230
1
100
AcDbAlignedDimension
13
138.382
23
53.292
33
0
14
138.362371441
24
33.892
34
0
50
90
100
AcDbRotatedDimension
0
ENDSEC
0
SECTION
2
OBJECTS
0
DICTIONARY
5
C
330
0
100
AcDbDictionary
281
1
3
ACAD_GROUP
350
D
0
DICTIONARY
5
D
330
C
100
AcDbDictionary
281
1
0
ENDSEC
0
EOF
